<svg width="560" height="488" viewBox="0 0 560 488" fill="none" xmlns="http://www.w3.org/2000/svg">
<g clip-path="url(#clip0_65_122)">
<path d="M504.918 253.963C504.991 314.348 481.662 372.409 439.834 415.943C437.312 418.584 434.723 421.162 432.065 423.676C428.016 427.529 423.831 431.234 419.509 434.789C379.085 468.11 328.619 486.834 276.253 487.941C274.508 487.98 272.757 488 270.999 488C229.236 488 176.708 465.683 129.04 434.789C125.096 432.233 121.187 429.618 117.314 426.943C115.503 425.705 113.701 424.449 111.908 423.175C93.5229 410.187 76.0718 395.924 59.6833 380.49C48.9531 370.415 38.8911 359.651 29.5612 348.266C-7.06602 303.064 -15.1447 262.335 37.0736 253.963C43.256 252.975 49.2563 251.919 55.0744 250.795C63.5021 249.174 71.5675 247.424 79.2709 245.545C89.6474 243.022 99.3962 240.286 108.517 237.337C111.586 236.349 114.583 235.341 117.511 234.313C160.795 219.103 189.765 199.269 209.484 177.749C212.829 174.106 215.912 170.42 218.735 166.689C223.053 161.011 226.975 155.042 230.474 148.825C235.303 140.186 239.359 131.137 242.595 121.784L242.773 121.27C258.463 75.9897 253.689 33.9897 270.999 19.9326C344.991 -40.1625 437.108 45.4185 480.346 146.341C482.525 151.426 484.575 156.543 486.496 161.689C487.358 163.988 488.19 166.292 488.991 168.599C491.098 174.613 493.009 180.643 494.726 186.688C495.384 188.993 496.012 191.297 496.609 193.598C497.247 196.081 497.86 198.558 498.426 201.035C502.633 219.169 504.918 237.054 504.918 253.963Z" fill="#17191D"/>
<path d="M276.253 487.941C274.508 487.98 272.757 488 270.999 488C229.236 488 176.708 465.683 129.04 434.789C125.096 432.233 121.187 429.618 117.313 426.943L120.711 406.259L223.561 392.597L275.18 432.088L276.253 487.941Z" fill="#2F2E41"/>
<path d="M281.204 118.602H266.548C266.094 118.603 265.659 118.783 265.338 119.104C265.017 119.425 264.836 119.861 264.836 120.315V134.985C264.836 135.209 264.881 135.432 264.967 135.639C265.053 135.846 265.179 136.035 265.338 136.193C265.497 136.351 265.686 136.477 265.894 136.562C266.101 136.648 266.324 136.692 266.548 136.691H281.204C281.657 136.691 282.092 136.512 282.412 136.192C282.733 135.872 282.914 135.438 282.916 134.985V120.315C282.915 119.861 282.734 119.426 282.413 119.106C282.092 118.785 281.658 118.604 281.204 118.602Z" fill="white"/>
<path d="M281.204 143.601H266.548C266.094 143.601 265.659 143.782 265.338 144.103C265.017 144.424 264.836 144.859 264.836 145.314V159.983C264.836 160.208 264.881 160.43 264.967 160.637C265.053 160.845 265.179 161.033 265.338 161.191C265.497 161.35 265.686 161.476 265.894 161.561C266.101 161.646 266.324 161.69 266.548 161.689H281.204C281.657 161.69 282.092 161.51 282.412 161.19C282.733 160.87 282.914 160.436 282.916 159.983V145.314C282.915 144.86 282.734 144.425 282.413 144.104C282.092 143.783 281.658 143.602 281.204 143.601Z" fill="#E6E6E6"/>
<path d="M281.204 168.599H266.548C266.094 168.6 265.659 168.78 265.338 169.101C265.017 169.422 264.836 169.858 264.836 170.312V184.975C264.836 185.2 264.88 185.423 264.966 185.631C265.051 185.839 265.177 186.028 265.337 186.187C265.496 186.346 265.684 186.472 265.892 186.558C266.1 186.644 266.323 186.688 266.548 186.688H281.204C281.658 186.688 282.093 186.507 282.414 186.186C282.735 185.865 282.916 185.429 282.916 184.975V170.312C282.915 169.858 282.734 169.423 282.413 169.102C282.092 168.782 281.658 168.601 281.204 168.599Z" fill="#E6E6E6"/>
<path d="M282.89 195.008C282.817 194.613 282.608 194.256 282.301 193.999C281.993 193.742 281.605 193.6 281.204 193.598H266.548C266.094 193.598 265.659 193.779 265.338 194.1C265.017 194.421 264.836 194.856 264.836 195.311V209.974C264.836 210.199 264.88 210.422 264.966 210.63C265.051 210.838 265.177 211.027 265.337 211.186C265.496 211.345 265.684 211.471 265.892 211.557C266.1 211.643 266.323 211.687 266.548 211.686H281.204C281.658 211.686 282.093 211.506 282.414 211.184C282.735 210.863 282.916 210.428 282.916 209.974V195.311C282.917 195.209 282.909 195.107 282.89 195.008Z" fill="#E6E6E6"/>
<path d="M281.869 218.728C281.658 218.641 281.432 218.596 281.204 218.596H266.548C266.323 218.596 266.1 218.64 265.893 218.726C265.685 218.812 265.496 218.938 265.337 219.097C265.178 219.256 265.052 219.445 264.966 219.653C264.88 219.861 264.836 220.084 264.836 220.309V234.972C264.835 235.197 264.879 235.42 264.965 235.629C265.05 235.837 265.176 236.026 265.336 236.185C265.495 236.345 265.684 236.471 265.892 236.556C266.1 236.642 266.323 236.686 266.548 236.685H281.204C281.658 236.685 282.094 236.504 282.415 236.183C282.736 235.862 282.916 235.426 282.916 234.972V220.309C282.915 219.972 282.816 219.642 282.63 219.361C282.444 219.08 282.179 218.86 281.869 218.728Z" fill="#E6E6E6"/>
<path d="M311.991 118.602H297.335C296.881 118.603 296.446 118.783 296.125 119.104C295.804 119.425 295.624 119.861 295.624 120.315V134.985C295.624 135.209 295.668 135.432 295.754 135.639C295.841 135.846 295.967 136.035 296.126 136.193C296.285 136.351 296.473 136.477 296.681 136.562C296.889 136.648 297.111 136.692 297.335 136.691H311.991C312.444 136.691 312.879 136.512 313.2 136.192C313.521 135.872 313.702 135.438 313.703 134.985V120.315C313.702 119.861 313.521 119.426 313.2 119.106C312.88 118.785 312.445 118.604 311.991 118.602Z" fill="#E6E6E6"/>
<path d="M311.991 143.601H297.335C296.881 143.601 296.446 143.782 296.125 144.103C295.804 144.424 295.624 144.859 295.624 145.314V159.983C295.624 160.208 295.668 160.43 295.754 160.637C295.841 160.845 295.967 161.033 296.126 161.191C296.285 161.35 296.473 161.476 296.681 161.561C296.889 161.646 297.111 161.69 297.335 161.689H311.991C312.444 161.69 312.879 161.51 313.2 161.19C313.521 160.87 313.702 160.436 313.703 159.983V145.314C313.702 144.86 313.521 144.425 313.2 144.104C312.88 143.783 312.445 143.602 311.991 143.601Z" fill="#40B53E"/>
<path d="M311.991 168.599H297.335C296.881 168.6 296.446 168.78 296.125 169.101C295.804 169.422 295.624 169.858 295.624 170.312V184.975C295.623 185.2 295.667 185.423 295.753 185.631C295.839 185.839 295.965 186.028 296.124 186.187C296.283 186.346 296.472 186.472 296.68 186.558C296.888 186.644 297.11 186.688 297.335 186.688H311.991C312.445 186.688 312.881 186.507 313.202 186.186C313.523 185.865 313.703 185.429 313.703 184.975V170.312C313.702 169.858 313.521 169.423 313.2 169.102C312.88 168.782 312.445 168.601 311.991 168.599Z" fill="#40B53E"/>
<path d="M311.991 193.598H297.335C296.976 193.598 296.627 193.711 296.336 193.922C296.045 194.132 295.828 194.429 295.716 194.77C295.655 194.944 295.624 195.127 295.624 195.31V209.974C295.623 210.199 295.667 210.422 295.753 210.63C295.839 210.838 295.965 211.027 296.124 211.186C296.283 211.345 296.472 211.471 296.68 211.557C296.888 211.643 297.11 211.687 297.335 211.686H311.991C312.445 211.686 312.881 211.506 313.202 211.184C313.523 210.863 313.703 210.428 313.703 209.974V195.31C313.702 194.857 313.521 194.422 313.2 194.101C312.88 193.78 312.445 193.599 311.991 193.598Z" fill="#40B53E"/>
<path d="M311.991 218.596H297.335C297.11 218.596 296.888 218.64 296.68 218.726C296.472 218.812 296.283 218.938 296.124 219.097C295.965 219.256 295.839 219.445 295.753 219.653C295.667 219.861 295.623 220.084 295.624 220.309V234.972C295.623 235.197 295.667 235.42 295.753 235.628C295.839 235.836 295.965 236.025 296.124 236.184C296.283 236.343 296.472 236.469 296.68 236.555C296.888 236.641 297.11 236.685 297.335 236.685H311.991C312.445 236.685 312.881 236.504 313.202 236.183C313.523 235.862 313.703 235.426 313.703 234.972V220.309C313.703 219.855 313.523 219.419 313.202 219.098C312.881 218.777 312.445 218.596 311.991 218.596Z" fill="#E6E6E6"/>
<path d="M342.778 118.602H328.122C327.668 118.603 327.233 118.783 326.912 119.104C326.591 119.425 326.411 119.861 326.411 120.315V134.985C326.411 135.209 326.455 135.432 326.542 135.639C326.628 135.846 326.754 136.035 326.913 136.193C327.072 136.351 327.261 136.477 327.468 136.562C327.676 136.648 327.898 136.692 328.122 136.691H342.778C343.231 136.691 343.666 136.512 343.987 136.192C344.308 135.872 344.489 135.438 344.49 134.985V120.315C344.489 119.861 344.308 119.426 343.987 119.106C343.667 118.785 343.232 118.604 342.778 118.602Z" fill="#40B53E"/>
<path d="M342.778 143.601H328.122C327.668 143.601 327.233 143.782 326.912 144.103C326.591 144.424 326.411 144.859 326.411 145.314V159.983C326.411 160.208 326.455 160.43 326.542 160.637C326.628 160.845 326.754 161.033 326.913 161.191C327.072 161.35 327.261 161.476 327.468 161.561C327.676 161.646 327.898 161.69 328.122 161.689H342.778C343.231 161.69 343.666 161.51 343.987 161.19C344.308 160.87 344.489 160.436 344.49 159.983V145.314C344.489 144.86 344.308 144.425 343.988 144.104C343.667 143.783 343.232 143.602 342.778 143.601Z" fill="#40B53E"/>
<path d="M342.779 168.599H328.122C327.668 168.6 327.233 168.78 326.912 169.101C326.591 169.422 326.411 169.858 326.411 170.312V184.975C326.41 185.2 326.454 185.423 326.54 185.631C326.626 185.839 326.752 186.028 326.911 186.187C327.07 186.346 327.259 186.472 327.467 186.558C327.675 186.644 327.897 186.688 328.122 186.688H342.779C343.232 186.688 343.668 186.507 343.989 186.186C344.31 185.865 344.49 185.429 344.49 184.975V170.312C344.489 169.858 344.308 169.423 343.988 169.102C343.667 168.782 343.232 168.601 342.779 168.599Z" fill="#E6E6E6"/>
<path d="M342.779 193.598H328.122C327.668 193.598 327.233 193.779 326.912 194.1C326.591 194.421 326.411 194.856 326.411 195.311V209.974C326.41 210.199 326.454 210.422 326.54 210.63C326.626 210.838 326.752 211.027 326.911 211.186C327.07 211.345 327.259 211.471 327.467 211.557C327.675 211.643 327.897 211.687 328.122 211.686H342.779C343.232 211.686 343.668 211.506 343.989 211.184C344.31 210.863 344.49 210.428 344.49 209.974V195.311C344.489 194.857 344.308 194.422 343.988 194.101C343.667 193.78 343.232 193.599 342.779 193.598Z" fill="#40B53E"/>
<path d="M342.779 218.596H328.122C327.897 218.596 327.675 218.64 327.467 218.726C327.259 218.812 327.07 218.938 326.911 219.097C326.752 219.256 326.626 219.445 326.54 219.653C326.454 219.861 326.41 220.084 326.411 220.309V234.972C326.41 235.197 326.454 235.42 326.54 235.628C326.626 235.836 326.752 236.025 326.911 236.184C327.07 236.343 327.259 236.469 327.467 236.555C327.675 236.641 327.897 236.685 328.122 236.685H342.779C343.232 236.685 343.668 236.504 343.989 236.183C344.31 235.862 344.49 235.426 344.49 234.972V220.309C344.49 219.855 344.31 219.419 343.989 219.098C343.668 218.777 343.232 218.596 342.779 218.596Z" fill="#40B53E"/>
<path d="M373.565 118.602H358.909C358.455 118.603 358.02 118.783 357.699 119.104C357.378 119.425 357.198 119.861 357.198 120.315V134.985C357.198 135.209 357.242 135.432 357.328 135.639C357.415 135.846 357.541 136.035 357.7 136.193C357.859 136.351 358.047 136.477 358.255 136.562C358.463 136.648 358.685 136.692 358.909 136.691H373.565C374.018 136.691 374.453 136.512 374.774 136.192C375.095 135.872 375.276 135.438 375.277 134.985V120.315C375.276 119.861 375.095 119.426 374.774 119.106C374.454 118.785 374.019 118.604 373.565 118.602Z" fill="#40B53E"/>
<path d="M373.565 143.601H358.909C358.455 143.601 358.02 143.782 357.699 144.103C357.378 144.424 357.198 144.859 357.198 145.314V159.983C357.198 160.208 357.242 160.43 357.328 160.637C357.415 160.845 357.541 161.033 357.7 161.191C357.859 161.35 358.047 161.476 358.255 161.561C358.463 161.646 358.685 161.69 358.909 161.689H373.565C374.018 161.69 374.453 161.51 374.774 161.19C375.095 160.87 375.276 160.436 375.277 159.983V145.314C375.276 144.86 375.095 144.425 374.775 144.104C374.454 143.783 374.019 143.602 373.565 143.601Z" fill="white"/>
<path d="M373.565 168.599H358.909C358.455 168.6 358.02 168.78 357.699 169.101C357.378 169.422 357.198 169.858 357.198 170.312V184.975C357.197 185.2 357.241 185.423 357.327 185.631C357.413 185.839 357.539 186.028 357.698 186.187C357.857 186.346 358.046 186.472 358.254 186.558C358.462 186.644 358.684 186.688 358.909 186.688H373.565C374.019 186.688 374.455 186.507 374.776 186.186C375.097 185.865 375.277 185.429 375.277 184.975V170.312C375.276 169.858 375.095 169.423 374.775 169.102C374.454 168.782 374.019 168.601 373.565 168.599Z" fill="white"/>
<path d="M373.565 193.598H358.909C358.455 193.598 358.02 193.779 357.699 194.1C357.378 194.421 357.198 194.856 357.198 195.311V209.974C357.197 210.199 357.241 210.422 357.327 210.63C357.413 210.838 357.539 211.027 357.698 211.186C357.857 211.345 358.046 211.471 358.254 211.557C358.462 211.643 358.684 211.687 358.909 211.686H373.565C374.019 211.686 374.455 211.506 374.776 211.184C375.097 210.863 375.277 210.428 375.277 209.974V195.311C375.276 194.857 375.095 194.422 374.775 194.101C374.454 193.78 374.019 193.599 373.565 193.598Z" fill="#E6E6E6"/>
<path d="M373.565 218.596H358.909C358.684 218.596 358.462 218.64 358.254 218.726C358.046 218.812 357.857 218.938 357.698 219.097C357.539 219.256 357.413 219.445 357.327 219.653C357.241 219.861 357.197 220.084 357.198 220.309V234.972C357.197 235.197 357.241 235.42 357.327 235.628C357.413 235.836 357.539 236.025 357.698 236.184C357.857 236.343 358.046 236.469 358.254 236.555C358.462 236.641 358.684 236.685 358.909 236.685H373.565C374.019 236.685 374.455 236.504 374.776 236.183C375.097 235.862 375.277 235.426 375.277 234.972V220.309C375.277 219.855 375.097 219.419 374.776 219.098C374.455 218.777 374.019 218.596 373.565 218.596Z" fill="#40B53E"/>
<path d="M404.353 118.602H389.69C389.237 118.604 388.803 118.785 388.484 119.106C388.164 119.427 387.984 119.862 387.985 120.315V134.985C387.985 135.437 388.164 135.871 388.484 136.191C388.804 136.511 389.238 136.691 389.69 136.691H404.353C404.806 136.691 405.24 136.512 405.561 136.192C405.882 135.872 406.063 135.438 406.065 134.985V120.315C406.063 119.861 405.882 119.426 405.562 119.106C405.241 118.785 404.806 118.604 404.353 118.602Z" fill="white"/>
<path d="M404.353 143.601H389.69C389.237 143.602 388.803 143.784 388.483 144.105C388.164 144.426 387.984 144.86 387.985 145.314V159.983C387.985 160.436 388.164 160.87 388.484 161.19C388.804 161.51 389.238 161.689 389.69 161.689H404.353C404.806 161.69 405.24 161.51 405.561 161.19C405.882 160.87 406.063 160.436 406.065 159.983V145.314C406.063 144.86 405.882 144.425 405.562 144.104C405.241 143.783 404.806 143.602 404.353 143.601Z" fill="white"/>
<path d="M404.353 168.599H389.69C389.237 168.601 388.803 168.782 388.484 169.103C388.164 169.424 387.984 169.859 387.985 170.312V184.975C387.984 185.2 388.028 185.422 388.113 185.63C388.198 185.837 388.324 186.026 388.482 186.185C388.641 186.344 388.829 186.471 389.036 186.557C389.243 186.643 389.465 186.688 389.69 186.688H404.353C404.807 186.688 405.242 186.507 405.563 186.186C405.884 185.865 406.064 185.429 406.065 184.975V170.312C406.063 169.858 405.882 169.423 405.562 169.102C405.241 168.782 404.806 168.601 404.353 168.599Z" fill="white"/>
<path d="M404.353 193.598H389.69C389.237 193.599 388.803 193.781 388.484 194.102C388.164 194.423 387.984 194.857 387.985 195.311V209.974C387.984 210.198 388.028 210.421 388.113 210.628C388.198 210.836 388.324 211.025 388.482 211.184C388.641 211.343 388.829 211.469 389.036 211.555C389.243 211.642 389.465 211.686 389.69 211.686H404.353C404.807 211.686 405.242 211.506 405.563 211.184C405.884 210.863 406.064 210.428 406.065 209.974V195.311C406.063 194.857 405.882 194.422 405.562 194.101C405.241 193.78 404.806 193.599 404.353 193.598Z" fill="#40B53E"/>
<path d="M404.353 218.596H389.69C389.465 218.596 389.243 218.641 389.036 218.727C388.829 218.813 388.641 218.94 388.482 219.099C388.324 219.258 388.198 219.447 388.113 219.654C388.028 219.862 387.984 220.084 387.985 220.309V234.972C387.984 235.197 388.028 235.419 388.113 235.627C388.198 235.834 388.324 236.023 388.482 236.182C388.641 236.341 388.829 236.468 389.036 236.554C389.243 236.64 389.465 236.685 389.69 236.685H404.353C404.807 236.685 405.242 236.504 405.563 236.183C405.884 235.862 406.064 235.426 406.065 234.972V220.309C406.064 219.855 405.884 219.419 405.563 219.098C405.242 218.777 404.807 218.596 404.353 218.596Z" fill="#E6E6E6"/>
<path d="M435.14 118.602H420.477C420.024 118.604 419.59 118.785 419.271 119.106C418.951 119.427 418.772 119.862 418.772 120.315V134.985C418.772 135.437 418.951 135.871 419.271 136.191C419.591 136.511 420.025 136.691 420.477 136.691H435.14C435.593 136.691 436.027 136.512 436.348 136.192C436.669 135.872 436.85 135.438 436.852 134.985V120.315C436.85 119.861 436.669 119.426 436.349 119.106C436.028 118.785 435.593 118.604 435.14 118.602Z" fill="white"/>
<path d="M435.14 143.601H420.477C420.024 143.602 419.59 143.784 419.271 144.105C418.951 144.426 418.772 144.86 418.772 145.314V159.983C418.772 160.436 418.951 160.87 419.271 161.19C419.591 161.51 420.025 161.689 420.477 161.689H435.14C435.593 161.69 436.027 161.51 436.348 161.19C436.669 160.87 436.85 160.436 436.852 159.983V145.314C436.85 144.86 436.669 144.425 436.349 144.104C436.028 143.783 435.593 143.602 435.14 143.601Z" fill="white"/>
<path d="M435.14 168.599H420.477C420.024 168.601 419.59 168.782 419.271 169.103C418.951 169.424 418.772 169.859 418.772 170.312V184.975C418.771 185.2 418.815 185.422 418.9 185.63C418.986 185.837 419.111 186.026 419.269 186.185C419.428 186.344 419.616 186.471 419.823 186.557C420.03 186.643 420.253 186.688 420.477 186.688H435.14C435.594 186.688 436.029 186.507 436.35 186.186C436.671 185.865 436.851 185.429 436.852 184.975V170.312C436.85 169.858 436.669 169.423 436.349 169.102C436.028 168.782 435.593 168.601 435.14 168.599Z" fill="#40B53E"/>
<path d="M435.14 193.598H420.477C420.024 193.599 419.59 193.781 419.271 194.102C418.951 194.423 418.772 194.857 418.772 195.311V209.974C418.771 210.198 418.815 210.421 418.9 210.628C418.986 210.836 419.111 211.025 419.269 211.184C419.428 211.343 419.616 211.469 419.823 211.555C420.03 211.642 420.253 211.686 420.477 211.686H435.14C435.594 211.686 436.029 211.506 436.35 211.184C436.671 210.863 436.851 210.428 436.852 209.974V195.311C436.85 194.857 436.669 194.422 436.349 194.101C436.028 193.78 435.593 193.599 435.14 193.598Z" fill="#E6E6E6"/>
<path d="M435.14 218.596H420.477C420.253 218.596 420.03 218.641 419.823 218.727C419.616 218.813 419.428 218.94 419.269 219.099C419.111 219.258 418.986 219.447 418.9 219.654C418.815 219.862 418.771 220.084 418.772 220.309V234.972C418.771 235.197 418.815 235.419 418.9 235.627C418.986 235.834 419.111 236.023 419.269 236.182C419.428 236.341 419.616 236.468 419.823 236.554C420.03 236.64 420.253 236.685 420.477 236.685H435.14C435.594 236.685 436.029 236.504 436.35 236.183C436.671 235.862 436.851 235.426 436.852 234.972V220.309C436.851 219.855 436.671 219.419 436.35 219.098C436.029 218.777 435.594 218.596 435.14 218.596Z" fill="white"/>
<path d="M465.927 118.602H451.264C450.811 118.604 450.377 118.785 450.058 119.106C449.738 119.427 449.559 119.862 449.559 120.315V134.985C449.559 135.437 449.739 135.871 450.058 136.191C450.378 136.511 450.812 136.691 451.264 136.691H465.927C466.38 136.691 466.814 136.512 467.135 136.192C467.456 135.872 467.637 135.438 467.639 134.985V120.315C467.637 119.861 467.457 119.426 467.136 119.106C466.815 118.785 466.38 118.604 465.927 118.602Z" fill="#40B53E"/>
<path d="M465.927 143.601H451.264C450.811 143.602 450.377 143.784 450.058 144.105C449.738 144.426 449.559 144.86 449.559 145.314V159.983C449.559 160.436 449.739 160.87 450.058 161.19C450.378 161.51 450.812 161.689 451.264 161.689H465.927C466.38 161.69 466.814 161.51 467.135 161.19C467.456 160.87 467.637 160.436 467.639 159.983V145.314C467.637 144.86 467.457 144.425 467.136 144.104C466.815 143.783 466.38 143.602 465.927 143.601Z" fill="#40B53E"/>
<path d="M465.927 168.599H451.264C450.811 168.601 450.377 168.782 450.058 169.103C449.738 169.424 449.559 169.859 449.559 170.312V184.975C449.558 185.2 449.602 185.422 449.687 185.63C449.773 185.837 449.898 186.026 450.057 186.185C450.215 186.344 450.403 186.471 450.61 186.557C450.818 186.643 451.04 186.688 451.264 186.688H465.927C466.381 186.688 466.816 186.507 467.137 186.186C467.458 185.865 467.639 185.429 467.639 184.975V170.312C467.637 169.858 467.457 169.423 467.136 169.102C466.815 168.782 466.38 168.601 465.927 168.599Z" fill="#E6E6E6"/>
<path d="M465.927 193.598H451.264C450.811 193.599 450.377 193.781 450.058 194.102C449.738 194.423 449.559 194.857 449.559 195.311V209.974C449.558 210.198 449.602 210.421 449.687 210.628C449.773 210.836 449.898 211.025 450.057 211.184C450.215 211.343 450.403 211.469 450.61 211.555C450.818 211.642 451.04 211.686 451.264 211.686H465.927C466.381 211.686 466.816 211.506 467.137 211.184C467.458 210.863 467.639 210.428 467.639 209.974V195.311C467.637 194.857 467.457 194.422 467.136 194.101C466.815 193.78 466.38 193.599 465.927 193.598Z" fill="white"/>
<path d="M465.927 218.596H451.264C451.04 218.596 450.818 218.641 450.61 218.727C450.403 218.813 450.215 218.94 450.057 219.099C449.898 219.258 449.773 219.447 449.687 219.654C449.602 219.862 449.558 220.084 449.559 220.309V234.972C449.558 235.197 449.602 235.419 449.687 235.627C449.773 235.834 449.898 236.023 450.057 236.182C450.215 236.341 450.403 236.468 450.61 236.554C450.818 236.64 451.04 236.685 451.264 236.685H465.927C466.381 236.685 466.816 236.504 467.137 236.183C467.458 235.862 467.639 235.426 467.639 234.972V220.309C467.639 219.855 467.458 219.419 467.137 219.098C466.816 218.777 466.381 218.596 465.927 218.596Z" fill="#40B53E"/>
<path d="M496.714 118.602H482.051C481.598 118.604 481.164 118.785 480.845 119.106C480.525 119.427 480.346 119.862 480.346 120.315V134.985C480.346 135.437 480.525 135.871 480.845 136.191C481.165 136.511 481.599 136.691 482.051 136.691H496.714C497.167 136.691 497.601 136.512 497.922 136.192C498.243 135.872 498.424 135.438 498.426 134.985V120.315C498.424 119.861 498.244 119.426 497.923 119.106C497.602 118.785 497.167 118.604 496.714 118.602Z" fill="#40B53E"/>
<path d="M496.714 143.601H482.051C481.598 143.602 481.164 143.784 480.845 144.105C480.525 144.426 480.346 144.86 480.346 145.314V159.983C480.346 160.436 480.525 160.87 480.845 161.19C481.165 161.51 481.599 161.689 482.051 161.689H496.714C497.167 161.69 497.601 161.51 497.922 161.19C498.243 160.87 498.424 160.436 498.426 159.983V145.314C498.424 144.86 498.244 144.425 497.923 144.104C497.602 143.783 497.167 143.602 496.714 143.601Z" fill="#40B53E"/>
<path d="M496.714 168.599H482.051C481.598 168.601 481.164 168.782 480.845 169.103C480.525 169.424 480.346 169.859 480.346 170.312V184.975C480.345 185.2 480.389 185.422 480.474 185.63C480.56 185.837 480.685 186.026 480.843 186.185C481.002 186.344 481.19 186.471 481.397 186.557C481.604 186.643 481.827 186.688 482.051 186.688H496.714C497.168 186.688 497.603 186.507 497.924 186.186C498.245 185.865 498.425 185.429 498.426 184.975V170.312C498.424 169.858 498.244 169.423 497.923 169.102C497.602 168.782 497.167 168.601 496.714 168.599Z" fill="#E6E6E6"/>
<path d="M496.714 193.598H482.051C481.598 193.599 481.164 193.781 480.845 194.102C480.525 194.423 480.346 194.857 480.346 195.311V209.974C480.345 210.198 480.389 210.421 480.474 210.628C480.559 210.836 480.685 211.025 480.843 211.184C481.002 211.343 481.19 211.469 481.397 211.555C481.604 211.642 481.827 211.686 482.051 211.686H496.714C497.168 211.686 497.603 211.506 497.924 211.184C498.245 210.863 498.425 210.428 498.426 209.974V195.311C498.424 194.857 498.244 194.422 497.923 194.101C497.602 193.78 497.167 193.599 496.714 193.598Z" fill="#40B53E"/>
<path d="M496.714 218.596H482.051C481.827 218.596 481.604 218.641 481.397 218.727C481.19 218.813 481.002 218.94 480.843 219.099C480.685 219.258 480.559 219.447 480.474 219.654C480.389 219.862 480.345 220.084 480.346 220.309V234.972C480.345 235.197 480.389 235.419 480.474 235.627C480.559 235.834 480.685 236.023 480.843 236.182C481.002 236.341 481.19 236.468 481.397 236.554C481.604 236.64 481.827 236.685 482.051 236.685H496.714C497.168 236.685 497.603 236.504 497.924 236.183C498.245 235.862 498.425 235.426 498.426 234.972V220.309C498.425 219.855 498.245 219.419 497.924 219.098C497.603 218.777 497.168 218.596 496.714 218.596Z" fill="#40B53E"/>
<path d="M527.501 118.602H512.838C512.385 118.604 511.952 118.785 511.632 119.106C511.312 119.427 511.133 119.862 511.133 120.315V134.985C511.133 135.437 511.313 135.871 511.633 136.191C511.952 136.511 512.386 136.691 512.838 136.691H527.501C527.954 136.691 528.388 136.512 528.709 136.192C529.03 135.872 529.211 135.438 529.213 134.985V120.315C529.212 119.861 529.031 119.426 528.71 119.106C528.389 118.785 527.955 118.604 527.501 118.602Z" fill="#E6E6E6"/>
<path d="M527.501 143.601H512.838C512.385 143.602 511.952 143.784 511.632 144.105C511.312 144.426 511.133 144.86 511.133 145.314V159.983C511.133 160.436 511.313 160.87 511.633 161.19C511.952 161.51 512.386 161.689 512.838 161.689H527.501C527.954 161.69 528.388 161.51 528.709 161.19C529.03 160.87 529.211 160.436 529.213 159.983V145.314C529.212 144.86 529.031 144.425 528.71 144.104C528.389 143.783 527.955 143.602 527.501 143.601Z" fill="#40B53E"/>
<path d="M527.501 168.599H512.838C512.385 168.601 511.952 168.782 511.632 169.103C511.312 169.424 511.133 169.859 511.133 170.312V184.975C511.132 185.2 511.176 185.422 511.261 185.63C511.347 185.837 511.472 186.026 511.631 186.185C511.789 186.344 511.977 186.471 512.185 186.557C512.392 186.643 512.614 186.688 512.838 186.688H527.501C527.955 186.688 528.39 186.507 528.711 186.186C529.032 185.865 529.213 185.429 529.213 184.975V170.312C529.212 169.858 529.031 169.423 528.71 169.102C528.389 168.782 527.955 168.601 527.501 168.599Z" fill="#40B53E"/>
<path d="M527.501 193.598H512.838C512.385 193.599 511.952 193.781 511.632 194.102C511.312 194.423 511.133 194.857 511.133 195.311V209.974C511.132 210.198 511.176 210.421 511.261 210.628C511.347 210.836 511.472 211.025 511.631 211.184C511.789 211.343 511.977 211.469 512.184 211.555C512.392 211.642 512.614 211.686 512.838 211.686H527.501C527.955 211.686 528.39 211.506 528.711 211.184C529.032 210.863 529.213 210.428 529.213 209.974V195.311C529.212 194.857 529.031 194.422 528.71 194.101C528.389 193.78 527.955 193.599 527.501 193.598Z" fill="#40B53E"/>
<path d="M527.501 218.596H512.838C512.614 218.596 512.392 218.641 512.184 218.727C511.977 218.813 511.789 218.94 511.631 219.099C511.472 219.258 511.347 219.447 511.261 219.654C511.176 219.862 511.132 220.084 511.133 220.309V234.972C511.132 235.197 511.176 235.419 511.261 235.627C511.347 235.834 511.472 236.023 511.631 236.182C511.789 236.341 511.977 236.468 512.184 236.554C512.392 236.64 512.614 236.685 512.838 236.685H527.501C527.955 236.685 528.39 236.504 528.711 236.183C529.032 235.862 529.213 235.426 529.213 234.972V220.309C529.213 219.855 529.032 219.419 528.711 219.098C528.39 218.777 527.955 218.596 527.501 218.596Z" fill="#E6E6E6"/>
<path d="M558.288 118.602H543.625C543.173 118.604 542.739 118.785 542.419 119.106C542.099 119.427 541.92 119.862 541.92 120.315V134.985C541.92 135.437 542.1 135.871 542.42 136.191C542.74 136.511 543.173 136.691 543.625 136.691H558.288C558.741 136.691 559.176 136.512 559.497 136.192C559.817 135.872 559.998 135.438 560 134.985V120.315C559.999 119.861 559.818 119.426 559.497 119.106C559.176 118.785 558.742 118.604 558.288 118.602Z" fill="#E6E6E6"/>
<path d="M558.288 143.601H543.625C543.173 143.602 542.739 143.784 542.419 144.105C542.099 144.426 541.92 144.86 541.92 145.314V159.983C541.92 160.436 542.1 160.87 542.42 161.19C542.74 161.51 543.173 161.689 543.625 161.689H558.288C558.741 161.69 559.176 161.51 559.497 161.19C559.817 160.87 559.998 160.436 560 159.983V145.314C559.999 144.86 559.818 144.425 559.497 144.104C559.176 143.783 558.742 143.602 558.288 143.601Z" fill="#E6E6E6"/>
<path d="M558.288 168.599H543.625C543.173 168.601 542.739 168.782 542.419 169.103C542.099 169.424 541.92 169.859 541.92 170.312V184.975C541.92 185.2 541.963 185.422 542.049 185.63C542.134 185.837 542.259 186.026 542.418 186.185C542.576 186.344 542.764 186.471 542.972 186.557C543.179 186.643 543.401 186.688 543.625 186.688H558.288C558.742 186.688 559.177 186.507 559.498 186.186C559.819 185.865 560 185.429 560 184.975V170.312C559.999 169.858 559.818 169.423 559.497 169.102C559.176 168.782 558.742 168.601 558.288 168.599Z" fill="#40B53E"/>
<path d="M558.288 193.598H543.625C543.173 193.599 542.739 193.781 542.419 194.102C542.099 194.423 541.92 194.857 541.92 195.311V209.974C541.92 210.198 541.963 210.421 542.049 210.628C542.134 210.836 542.259 211.025 542.418 211.184C542.576 211.343 542.764 211.469 542.972 211.555C543.179 211.642 543.401 211.686 543.625 211.686H558.288C558.742 211.686 559.177 211.506 559.498 211.184C559.819 210.863 560 210.428 560 209.974V195.311C559.999 194.857 559.818 194.422 559.497 194.101C559.176 193.78 558.742 193.599 558.288 193.598Z" fill="#E6E6E6"/>
<path d="M558.288 218.596H543.625C543.401 218.596 543.179 218.641 542.972 218.727C542.764 218.813 542.576 218.94 542.418 219.099C542.259 219.258 542.134 219.447 542.049 219.654C541.963 219.862 541.92 220.084 541.92 220.309V234.972C541.92 235.197 541.963 235.419 542.049 235.627C542.134 235.834 542.259 236.023 542.418 236.182C542.576 236.341 542.764 236.468 542.972 236.554C543.179 236.64 543.401 236.685 543.625 236.685H558.288C558.742 236.685 559.177 236.504 559.498 236.183C559.819 235.862 560 235.426 560 234.972V220.309C560 219.855 559.819 219.419 559.498 219.098C559.177 218.777 558.742 218.596 558.288 218.596Z" fill="#E6E6E6"/>
<path d="M221.287 434.79H220.879L221.228 434.743L221.287 434.79Z" fill="#2F2E41"/>
<path d="M186.207 161.423C211.051 161.423 231.191 141.273 231.191 116.418C231.191 91.562 211.051 71.4125 186.207 71.4125C161.363 71.4125 141.223 91.562 141.223 116.418C141.223 141.273 161.363 161.423 186.207 161.423Z" fill="#FFB6B6"/>
<path d="M225.6 83.4207C225.6 83.4207 237.366 60.9182 211.482 58.8724C211.482 58.8724 189.415 38.8458 166.923 55.2113C166.923 55.2113 154.655 55.2113 147.946 69.1009C147.946 69.1009 138.297 65.4397 136.177 75.2379C136.177 75.2379 129.117 95.6948 136.177 114.106C143.237 132.517 145.583 134.563 145.583 134.563C145.583 134.563 133.981 95.9628 162.22 93.9171C190.46 91.8713 222.061 74.2151 224.414 96.7176C226.768 119.22 230.309 124.764 230.309 124.764C230.309 124.764 252.662 92.6263 225.6 83.4207Z" fill="#2F2E41"/>
<path d="M302.57 227.331L302.425 228.095L300.798 236.685L289.559 296.101L288.894 299.599L287.499 306.997L285.589 317.088L281.356 339.452L280.144 345.861L279.69 348.265L279.532 349.109L278.274 355.742L277.892 357.744L274.824 380.49L272.145 400.311L281.112 409.283L275.766 414.632L272.257 434.742L272.263 434.788H129.04C123.246 431.034 117.535 427.163 111.908 423.175L113.087 414.348C113.087 414.348 117.142 398.585 115.437 396.701C113.739 394.817 110.012 391.451 110.012 391.451L114.706 380.49L115.358 378.968L114.265 356.289L114.239 355.742L113.877 348.265L113.831 347.304L113.758 345.861L112.369 317.088L112.343 316.614L111.921 307.892L111.526 299.599L111.355 296.101L109.663 261.103L108.517 237.337L107.517 216.646L111.539 215.283L154.566 200.653L172.389 177.472L209.484 177.749L227.643 177.887L257.943 206.001L264.836 209.295L264.889 209.321L269.834 211.686L282.37 217.674L295.623 224.011L302.425 227.258L302.57 227.331Z" fill="#CACACA"/>
<path d="M177.183 367.271C174.465 368.324 171.549 368.769 168.64 368.573C165.732 368.377 162.901 367.545 160.349 366.136C157.796 364.728 155.583 362.776 153.866 360.419C152.149 358.063 150.969 355.358 150.41 352.495L80.2507 342.537L104.64 314.935L167.525 328.624C172.394 328.002 177.321 329.189 181.373 331.96C185.426 334.73 188.321 338.891 189.512 343.655C190.702 348.419 190.105 353.454 187.833 357.807C185.56 362.159 181.771 365.526 177.183 367.271V367.271Z" fill="#FFB6B6"/>
<path d="M145.902 317.088C144.602 315.44 142.762 314.304 140.707 313.88L111.921 307.892L108.965 307.28C107.247 306.921 105.624 306.204 104.202 305.174C102.781 304.144 101.592 302.826 100.715 301.305C99.8053 299.709 99.2547 297.933 99.1021 296.101C98.9649 294.436 99.1642 292.761 99.6881 291.174L109.663 261.104L116.135 241.592C116.919 239.239 117.382 236.791 117.511 234.313C117.872 227.458 115.752 220.702 111.539 215.283C107.836 210.52 102.7 207.075 96.8889 205.457C91.0781 203.839 84.9013 204.134 79.2709 206.298C79.1063 206.357 78.9351 206.423 78.7705 206.489C74.7327 208.102 71.1252 210.633 68.233 213.88C65.3409 217.128 63.2434 221.005 62.1062 225.203L55.0745 250.795L40.5697 303.552C39.1178 308.837 38.8244 314.375 39.7098 319.784C40.5952 325.194 42.6384 330.349 45.6996 334.895C48.7608 339.441 52.7677 343.272 57.446 346.126C62.1243 348.979 67.3636 350.788 72.8054 351.427L114.265 356.289L133.451 358.542C135.67 358.808 137.907 358.229 139.718 356.919C141.529 355.609 142.78 353.665 143.222 351.473C143.253 351.354 143.277 351.233 143.294 351.111L143.755 348.265L147.66 324.301L147.699 324.057C147.903 322.835 147.848 321.583 147.538 320.382C147.229 319.182 146.671 318.06 145.902 317.088Z" fill="#CACACA"/>
<path d="M221.872 368.039C224.711 368.698 227.661 368.727 230.513 368.123C233.365 367.518 236.049 366.296 238.378 364.541C240.706 362.786 242.622 360.542 243.99 357.966C245.358 355.391 246.145 352.547 246.295 349.634L314.349 329.876L286.313 305.992L225.986 328.415C221.078 328.487 216.367 330.357 212.746 333.672C209.125 336.986 206.844 341.515 206.337 346.399C205.83 351.283 207.131 356.183 209.994 360.172C212.858 364.16 217.084 366.959 221.872 368.039V368.039Z" fill="#FFB6B6"/>
<path d="M348.138 285.68L315.77 211.153C313.123 205.034 308.395 200.051 302.425 197.089C300.579 196.18 298.641 195.473 296.644 194.981C296.334 194.902 296.025 194.83 295.715 194.77C291.48 193.846 287.088 193.927 282.89 195.008C279.052 195.994 275.466 197.778 272.364 200.245C269.263 202.711 266.715 205.804 264.889 209.322C264.869 209.351 264.851 209.382 264.836 209.414C262.796 213.362 261.711 217.735 261.669 222.18C261.626 226.625 262.628 231.018 264.593 235.005L264.994 235.809L287.867 281.768C288.648 283.339 289.088 285.058 289.159 286.812C289.229 288.566 288.928 290.314 288.275 291.944C287.622 293.573 286.632 295.045 285.371 296.265C284.109 297.484 282.604 298.423 280.954 299.02L279.347 299.599L250.457 310.04C248.289 310.814 246.506 312.399 245.483 314.462C244.46 316.525 244.277 318.905 244.972 321.1L245.044 321.33L253.143 347.258C253.182 347.376 253.222 347.495 253.268 347.613C253.339 347.837 253.427 348.055 253.531 348.265C254.392 350.197 255.913 351.757 257.821 352.667C259.73 353.576 261.899 353.774 263.941 353.226L279.532 349.109L282.712 348.265L322.973 337.627C328.271 336.227 333.204 333.697 337.433 330.212C341.663 326.727 345.09 322.369 347.48 317.436C349.87 312.503 351.166 307.111 351.279 301.63C351.393 296.149 350.321 290.708 348.138 285.68L348.138 285.68Z" fill="#CACACA"/>
<path d="M29.561 348.266C38.8909 359.651 48.953 370.415 59.6831 380.49H357.263C360.13 380.495 362.879 381.637 364.905 383.665C366.932 385.694 368.072 388.445 368.074 391.313L368.502 466.756C386.809 458.341 403.953 447.597 419.509 434.789C423.828 431.238 428.013 427.534 432.065 423.676C434.718 421.16 437.308 418.582 439.834 415.943C458.772 396.204 474.108 373.299 485.146 348.266H29.561Z" fill="#3F3D56"/>
<path d="M439.834 415.943C437.312 418.584 434.723 421.162 432.065 423.676H368.72V415.943H439.834Z" fill="white"/>
<path d="M301.977 168.599C301.664 168.021 301.201 167.539 300.636 167.203C300.072 166.866 299.427 166.689 298.77 166.689H82.9183C81.9506 166.692 81.0233 167.078 80.3396 167.763C79.6559 168.448 79.2715 169.377 79.2708 170.345V299.599H302.424V170.345C302.428 169.734 302.274 169.133 301.977 168.599Z" fill="#3F3D56"/>
<path d="M79.0754 296.1V312.05C79.0754 312.711 79.2056 313.366 79.4585 313.977C79.7114 314.588 80.0821 315.143 80.5495 315.61C81.0168 316.078 81.5716 316.449 82.1822 316.702C82.7928 316.955 83.4473 317.085 84.1082 317.085H166.473V348.563H165.379C165.293 348.563 165.208 348.58 165.128 348.613C165.049 348.646 164.977 348.694 164.916 348.755C164.856 348.815 164.807 348.888 164.775 348.967C164.742 349.046 164.725 349.131 164.725 349.217V351.407C164.725 351.493 164.742 351.578 164.774 351.657C164.807 351.736 164.855 351.808 164.916 351.869C164.977 351.93 165.049 351.978 165.128 352.011C165.208 352.044 165.293 352.061 165.379 352.061H216.509C216.595 352.061 216.68 352.044 216.76 352.011C216.839 351.978 216.911 351.93 216.972 351.869C217.032 351.808 217.081 351.736 217.113 351.657C217.146 351.578 217.163 351.493 217.163 351.407V349.217C217.163 349.131 217.146 349.046 217.113 348.967C217.081 348.888 217.032 348.815 216.972 348.755C216.911 348.694 216.839 348.646 216.76 348.613C216.68 348.58 216.595 348.563 216.509 348.563H215.415V317.085H297.78C298.441 317.085 299.095 316.955 299.706 316.702C300.316 316.449 300.871 316.078 301.338 315.61C301.806 315.143 302.176 314.588 302.429 313.977C302.682 313.366 302.812 312.711 302.812 312.05V296.1H79.0754Z" fill="#3F3D56"/>
<path d="M188.241 250.321C199.624 250.321 208.853 241.088 208.853 229.699C208.853 218.309 199.624 209.076 188.241 209.076C176.857 209.076 167.628 218.309 167.628 229.699C167.628 241.088 176.857 250.321 188.241 250.321Z" fill="#40B53E"/>
<path d="M240.758 113.958H237.466C237.466 89.0588 212.835 72.7423 187.987 72.7291C184.373 72.7185 180.767 73.0694 177.222 73.7765C173.232 74.5735 169.091 75.5287 165.022 76.7736C148.976 81.6943 134.096 91.2062 134.096 113.958C134.093 118.377 134.655 122.778 135.769 127.054L132.582 127.884C131.4 123.337 130.803 118.657 130.804 113.958C130.804 94.0782 138.962 80.423 153.052 72.2812C160.459 67.9995 169.499 65.2394 179.856 63.8956C184.166 63.322 188.523 63.1896 192.859 63.5004C221.434 65.5556 240.758 87.4779 240.758 113.958Z" fill="#40B53E"/>
<path d="M246.243 115.783L244.946 106.192C244.626 103.77 243.46 101.539 241.654 99.8947C240.494 98.8226 239.106 98.0283 237.595 97.5719C236.084 97.1154 234.488 97.0087 232.93 97.2599L230.869 97.5431C230.305 97.6174 229.761 97.8029 229.27 98.089C228.778 98.3751 228.348 98.756 228.005 99.2097C227.659 99.6618 227.405 100.178 227.259 100.729C227.114 101.279 227.078 101.853 227.155 102.418L230.151 124.511C230.275 125.412 230.678 126.25 231.304 126.909C231.931 127.567 232.748 128.012 233.641 128.18C233.905 128.233 234.174 128.26 234.444 128.259C234.638 128.259 234.831 128.246 235.023 128.22L237.328 127.91C238.733 127.724 240.085 127.252 241.301 126.523C242.517 125.795 243.571 124.825 244.399 123.675C244.577 123.424 244.748 123.167 244.906 122.904C246.14 120.748 246.611 118.24 246.243 115.783Z" fill="#40B53E"/>
<path d="M229.539 97.945C228.934 98.2388 228.409 98.6723 228.005 99.2097C227.659 99.6618 227.405 100.178 227.259 100.729C227.114 101.279 227.078 101.853 227.155 102.418L230.151 124.511C230.275 125.412 230.678 126.251 231.304 126.909C231.931 127.567 232.748 128.012 233.641 128.18L229.539 97.945Z" fill="white"/>
<path d="M246.243 115.783L244.946 106.192C244.626 103.77 243.46 101.539 241.654 99.8947L244.636 121.876C244.681 122.229 244.772 122.575 244.906 122.904C246.14 120.748 246.611 118.24 246.243 115.783Z" fill="#3F3D56"/>
<path d="M235.992 122.694C236.893 122.571 237.345 120.426 237.003 117.903C236.661 115.379 235.653 113.433 234.753 113.555C233.852 113.677 233.399 115.822 233.741 118.346C234.083 120.869 235.091 122.816 235.992 122.694Z" fill="#3F3D56"/>
<path d="M234.016 110.837C234.917 110.714 235.37 108.57 235.028 106.046C234.686 103.523 233.678 101.576 232.777 101.698C231.876 101.82 231.424 103.965 231.766 106.489C232.108 109.012 233.116 110.959 234.016 110.837Z" fill="#3F3D56"/>
<path d="M246.526 115.448C247.427 115.325 247.88 113.181 247.538 110.657C247.196 108.134 246.188 106.187 245.287 106.309C244.386 106.431 243.933 108.576 244.276 111.1C244.618 113.623 245.625 115.57 246.526 115.448Z" fill="#3F3D56"/>
<path d="M187.987 72.7291C184.373 72.7185 180.767 73.0694 177.222 73.7765C173.232 74.5735 169.091 75.5287 165.022 76.7736C158.668 76.464 153.994 74.8172 153.052 72.2812C160.459 67.9995 169.499 65.2394 179.856 63.8956C184.166 63.322 188.523 63.1896 192.859 63.5004C193.318 63.7697 193.715 64.1331 194.024 64.5668C194.333 65.0005 194.546 65.4946 194.65 66.0167C194.96 68.3091 192.346 70.7463 187.987 72.7291Z" fill="#3F3D56"/>
<path d="M145.954 136.816L140.885 115.73C140.704 114.97 140.302 114.279 139.731 113.746C139.159 113.213 138.443 112.86 137.672 112.733C137.454 112.699 137.234 112.682 137.013 112.681C136.703 112.682 136.393 112.719 136.091 112.793L134.129 113.267C131.603 113.878 129.423 115.467 128.066 117.685C126.709 119.903 126.288 122.569 126.894 125.097L129.165 134.557C129.684 136.784 130.919 138.779 132.681 140.235C132.966 140.465 133.266 140.679 133.576 140.874C134.68 141.566 135.911 142.03 137.197 142.238C138.483 142.446 139.797 142.394 141.062 142.086L143.018 141.612C143.535 141.491 144.021 141.264 144.447 140.946C145.079 140.485 145.56 139.846 145.828 139.111C146.097 138.375 146.141 137.577 145.954 136.816Z" fill="#40B53E"/>
<path d="M135.326 132.893C136.21 132.68 136.444 130.5 135.848 128.024C135.253 125.549 134.053 123.714 133.169 123.927C132.286 124.139 132.052 126.319 132.647 128.795C133.243 131.271 134.442 133.106 135.326 132.893Z" fill="#3F3D56"/>
<path d="M128.742 134.869C129.626 134.656 129.86 132.477 129.264 130.001C128.669 127.525 127.469 125.69 126.585 125.903C125.702 126.116 125.468 128.295 126.063 130.771C126.659 133.247 127.858 135.082 128.742 134.869Z" fill="#3F3D56"/>
<path d="M146.277 136.737L141.207 115.651C141.01 114.828 140.574 114.082 139.954 113.505C139.335 112.929 138.559 112.548 137.724 112.41L144.644 141.21C145.327 140.709 145.847 140.017 146.138 139.221C146.428 138.425 146.477 137.561 146.277 136.737Z" fill="white"/>
<path d="M128.039 120.921C127.899 120.335 127.637 119.785 127.269 119.307C126.556 121.154 126.425 123.174 126.893 125.097L129.165 134.557C129.684 136.784 130.919 138.779 132.681 140.235L128.039 120.921Z" fill="#3F3D56"/>
</g>
<defs>
<clipPath id="clip0_65_122">
<rect width="560" height="488" fill="white"/>
</clipPath>
</defs>
</svg>
